<svg width="25" height="25" viewBox="0 0 25 25" fill="none" xmlns="http://www.w3.org/2000/svg">
<path d="M24.2943 5.848C23.922 4.88554 23.385 4.01337 22.7136 3.28031C22.0417 2.54506 21.2495 1.96077 20.38 1.55921C19.4785 1.14117 18.5115 0.927186 17.5352 0.929694C16.1656 0.929694 14.8294 1.34834 13.6681 2.13911C13.3903 2.32828 13.1264 2.53605 12.8764 2.76243C12.6263 2.53605 12.3624 2.32828 12.0846 2.13911C10.9234 1.34834 9.58711 0.929694 8.21751 0.929694C7.23128 0.929694 6.27562 1.14057 5.37274 1.55921C4.50042 1.96235 3.71421 2.54225 3.03914 3.28031C2.36683 4.01254 1.82977 4.88492 1.4584 5.848C1.07224 6.84964 0.875 7.91331 0.875 9.00799C0.875 10.0406 1.06391 11.1167 1.43895 12.2114C1.75288 13.1262 2.20293 14.0751 2.778 15.0334C3.68921 16.5498 4.94213 18.1313 6.49787 19.7346C9.07594 22.3922 11.629 24.2281 11.7374 24.3025L12.3958 24.7738C12.6875 24.9816 13.0625 24.9816 13.3542 24.7738L14.0126 24.3025C14.121 24.225 16.6713 22.3922 19.2521 19.7346C20.8078 18.1313 22.0608 16.5498 22.972 15.0334C23.547 14.0751 23.9999 13.1262 24.311 12.2114C24.6861 11.1167 24.875 10.0406 24.875 9.00799C24.8777 7.91331 24.6805 6.84964 24.2943 5.848V5.848Z" fill="white"/>
</svg>
