<svg width="25" height="25" viewBox="0 0 25 25" fill="none" xmlns="http://www.w3.org/2000/svg">
<path d="M0.5 12.14C0.5 5.4515 5.7395 0.5 12.5 0.5C19.2605 0.5 24.5 5.4515 24.5 12.14C24.5 18.8285 19.2605 23.78 12.5 23.78C11.285 23.78 10.121 23.6195 9.026 23.3195C8.81368 23.2604 8.58748 23.2763 8.3855 23.3645L6.0035 24.4175C5.85964 24.481 5.70239 24.5081 5.54558 24.4966C5.38876 24.485 5.23719 24.4351 5.10417 24.3513C4.97115 24.2675 4.86076 24.1522 4.7827 24.0157C4.70464 23.8792 4.66131 23.7257 4.6565 23.5685L4.5905 21.434C4.58594 21.3041 4.555 21.1764 4.49956 21.0589C4.44411 20.9413 4.36533 20.8362 4.268 20.75C1.934 18.662 0.5 15.638 0.5 12.14Z" fill="white"/>
</svg>
