<svg width="24" height="25" viewBox="0 0 24 25" fill="none" xmlns="http://www.w3.org/2000/svg">
<g clip-path="url(#clip0_343_2672)">
<path d="M12 24.1549C5.4 24.1549 0 18.7549 0 12.1549C0 5.55491 5.4 0.154907 12 0.154907C18.6 0.154907 24 5.55491 24 12.1549C24 18.7549 18.6 24.1549 12 24.1549ZM12 1.65491C6.2 1.65491 1.5 6.35491 1.5 12.1549C1.5 17.9549 6.2 22.6549 12 22.6549C17.8 22.6549 22.5 17.9549 22.5 12.1549C22.5 6.35491 17.8 1.65491 12 1.65491Z" fill="#262626"/>
<path d="M17.4498 12.1549C17.4498 11.4549 16.8998 10.9049 16.1998 10.9049C15.4998 10.9049 14.9498 11.4549 14.9498 12.1549C14.9498 12.8549 15.4998 13.4049 16.1998 13.4049C16.8998 13.4049 17.4498 12.8549 17.4498 12.1549ZM6.5498 12.1549C6.5498 11.4549 7.0998 10.9049 7.7998 10.9049C8.4998 10.9049 9.0498 11.4549 9.0498 12.1549C9.0498 12.8549 8.4998 13.4049 7.7998 13.4049C7.0998 13.4049 6.5498 12.8549 6.5498 12.1549ZM11.9998 18.8049C9.3998 18.8049 7.9998 17.0549 7.8998 16.9549C7.6498 16.6549 7.6998 16.1549 7.9998 15.9049C8.2998 15.6549 8.7998 15.7049 9.0498 16.0049C9.0998 16.0549 10.0998 17.2549 11.9498 17.2549C13.7998 17.2549 14.8498 16.0049 14.8498 16.0049C15.0998 15.7049 15.5998 15.6549 15.8998 15.9049C16.1998 16.1549 16.2498 16.6549 15.9998 16.9549C15.9998 17.0549 14.5998 18.8049 11.9998 18.8049Z" fill="#262626"/>
</g>
<defs>
<clipPath id="clip0_343_2672">
<rect width="24" height="24" fill="white" transform="translate(0 0.154907)"/>
</clipPath>
</defs>
</svg>
