<svg width="48" height="49" viewBox="0 0 48 49" fill="none" xmlns="http://www.w3.org/2000/svg">
<path d="M24 0.999999C17.48 0.999999 16.66 1.03 14.1 1.14C11.55 1.26 9.8 1.67 8.28 2.26C6.67868 2.86314 5.22827 3.80846 4.03 5.03C2.80846 6.22827 1.86314 7.67868 1.26 9.28C0.66 10.8 0.26 12.55 0.14 15.1C0.03 17.66 0 18.48 0 25C0 31.5 0.03 32.33 0.14 34.88C0.26 37.44 0.67 39.18 1.26 40.71C1.86314 42.3113 2.80846 43.7617 4.03 44.96C5.22827 46.1815 6.67868 47.1269 8.28 47.73C9.8 48.32 11.55 48.73 14.1 48.84C16.66 48.96 17.48 48.98 24 48.98C30.5 48.98 31.33 48.96 33.88 48.84C36.44 48.72 38.18 48.32 39.71 47.73C41.3113 47.1269 42.7617 46.1815 43.96 44.96C45.1815 43.7617 46.1269 42.3113 46.73 40.71C47.32 39.18 47.73 37.44 47.84 34.88C47.96 32.33 47.98 31.51 47.98 24.99C47.98 18.48 47.96 17.66 47.84 15.1C47.72 12.55 47.32 10.8 46.73 9.28C46.1269 7.67868 45.1815 6.22827 43.96 5.03C42.7617 3.80846 41.3113 2.86314 39.71 2.26C38.18 1.66 36.44 1.26 33.88 1.14C30.5887 0.997725 27.294 0.951038 24 0.999999ZM24 5.32C30.4 5.32 31.16 5.35 33.69 5.46C36.03 5.57 37.29 5.96 38.14 6.29C39.26 6.72 40.06 7.24 40.9 8.09C41.6978 8.8608 42.3128 9.80046 42.7 10.84C43.02 11.69 43.42 12.96 43.52 15.3C43.64 17.83 43.66 18.59 43.66 25C43.66 31.4 43.64 32.16 43.52 34.69C43.42 37.03 43.02 38.29 42.7 39.14C42.3141 40.1831 41.699 41.1263 40.9 41.9C40.1263 42.699 39.1831 43.3141 38.14 43.7C37.3 44.02 36.03 44.42 33.69 44.52C31.16 44.64 30.39 44.66 23.99 44.66C17.59 44.66 16.83 44.64 14.29 44.52C11.96 44.42 10.69 44.02 9.84 43.7C8.79687 43.3141 7.85368 42.699 7.08 41.9C6.28099 41.1263 5.66586 40.1831 5.28 39.14C4.96 38.3 4.57 37.03 4.46 34.69C4.31913 31.4587 4.27244 28.224 4.32 24.99C4.32 18.59 4.35 17.83 4.46 15.29C4.57 12.96 4.96 11.69 5.29 10.84C5.67586 9.79687 6.29099 8.85368 7.09 8.08C7.8608 7.28223 8.80046 6.66719 9.84 6.28C10.69 5.96 11.96 5.57 14.3 5.46C16.83 5.35 17.59 5.32 24 5.32ZM24 12.67C20.7325 12.67 17.5989 13.968 15.2884 16.2784C12.978 18.5889 11.68 21.7225 11.68 24.99C11.68 28.2575 12.978 31.3911 15.2884 33.7016C17.5989 36.012 20.7325 37.31 24 37.31C27.2675 37.31 30.4011 36.012 32.7116 33.7016C35.022 31.3911 36.32 28.2575 36.32 24.99C36.32 21.7225 35.022 18.5889 32.7116 16.2784C30.4011 13.968 27.2675 12.67 24 12.67ZM24 33C21.8783 33 19.8434 32.1571 18.3431 30.6569C16.8429 29.1566 16 27.1217 16 25C16 22.8783 16.8429 20.8434 18.3431 19.3431C19.8434 17.8429 21.8783 17 24 17C26.1217 17 28.1566 17.8429 29.6569 19.3431C31.1571 20.8434 32 22.8783 32 25C32 27.1217 31.1571 29.1566 29.6569 30.6569C28.1566 32.1571 26.1217 33 24 33ZM39.68 12.2C39.68 11.4362 39.3766 10.7036 38.8365 10.1635C38.2964 9.62343 37.5638 9.32 36.8 9.32C36.0362 9.32 35.3036 9.62343 34.7635 10.1635C34.2234 10.7036 33.92 11.4362 33.92 12.2C33.92 12.9638 34.2234 13.6964 34.7635 14.2365C35.3036 14.7766 36.0362 15.08 36.8 15.08C37.5638 15.08 38.2964 14.7766 38.8365 14.2365C39.3766 13.6964 39.68 12.9638 39.68 12.2Z" fill="#C7C7C7"/>
</svg>
