<svg width="22" height="22" viewBox="0 0 22 22" fill="none" xmlns="http://www.w3.org/2000/svg">
<g clip-path="url(#clip0_306_2148)">
<path d="M20.8538 22H13.7955C13.4288 22 13.108 21.6792 13.108 21.3125V15.675C13.108 14.4834 12.1455 13.5667 10.9997 13.5667C9.85384 13.5667 8.89134 14.5292 8.89134 15.675V21.3125C8.89134 21.6792 8.57051 22 8.20384 22H1.14551C0.778841 22 0.458008 21.6792 0.458008 21.3125V10.5417C0.458008 10.3584 0.549674 10.175 0.641341 10.0375L10.4955 0.183362C10.7705 -0.0916382 11.2288 -0.0916382 11.458 0.183362L21.3122 10.0375C21.4497 10.175 21.4955 10.3584 21.4955 10.5417V21.3125C21.5413 21.6792 21.2205 22 20.8538 22Z" fill="#262626"/>
</g>
<defs>
<clipPath id="clip0_306_2148">
<rect width="22" height="22" fill="white"/>
</clipPath>
</defs>
</svg>
