<svg width="22" height="22" viewBox="0 0 22 22" fill="none" xmlns="http://www.w3.org/2000/svg">
<path d="M16.5913 7.65415L13.2913 10.175C13.0622 10.3583 12.7413 10.3583 12.5122 10.175L10.0372 8.34165C9.30384 7.79165 8.24967 7.97498 7.74551 8.75415L4.62884 13.6583C4.30801 14.1166 4.90384 14.6666 5.36217 14.3458L8.70801 11.825C8.93717 11.6416 9.25801 11.6416 9.48717 11.825L11.9622 13.6583C12.6955 14.2083 13.7497 14.025 14.2538 13.2458L17.3705 8.34165C17.6455 7.83748 17.0497 7.33331 16.5913 7.65415ZM10.9997 0.458313C5.04134 0.458313 0.458008 4.81248 0.458008 10.6791C0.458008 13.75 1.69551 16.4083 3.75801 18.2416C3.94134 18.3791 4.03301 18.6083 4.03301 18.8375L4.12467 20.7166C4.12467 21.175 4.53717 21.5416 4.94967 21.5416C5.04134 21.5416 5.17884 21.5416 5.27051 21.45L7.37884 20.5333C7.47051 20.4875 7.60801 20.4416 7.69967 20.4416C7.79134 20.4416 7.83717 20.4416 7.92884 20.4875C8.89134 20.7625 9.89967 20.9 10.9997 20.9C16.958 20.9 21.5413 16.5458 21.5413 10.6791C21.5413 4.81248 16.958 0.458313 10.9997 0.458313ZM10.9997 19.525C10.083 19.525 9.16634 19.3875 8.29551 19.1583C8.11217 19.1125 7.92884 19.0666 7.69967 19.0666C7.37884 19.0666 7.10384 19.1125 6.78301 19.25L5.40801 19.8458V18.7916C5.40801 18.1958 5.13301 17.6458 4.67467 17.2333C2.84134 15.5833 1.83301 13.2458 1.83301 10.6791C1.83301 5.63748 5.77467 1.83331 10.9997 1.83331C16.2247 1.83331 20.1663 5.63748 20.1663 10.6791C20.1663 15.7208 16.2247 19.525 10.9997 19.525Z" fill="#262626"/>
</svg>
