<svg width="10" height="10" viewBox="0 0 10 10" fill="none" xmlns="http://www.w3.org/2000/svg">
<path d="M4.16634 7.49998C4.90591 7.49983 5.62418 7.25224 6.20676 6.79665L8.03842 8.62831L8.62759 8.03915L6.79593 6.20748C7.25176 5.62484 7.4995 4.90641 7.49967 4.16665C7.49967 2.32873 6.00426 0.833313 4.16634 0.833313C2.32842 0.833313 0.833008 2.32873 0.833008 4.16665C0.833008 6.00456 2.32842 7.49998 4.16634 7.49998ZM4.16634 1.66665C5.54509 1.66665 6.66634 2.7879 6.66634 4.16665C6.66634 5.5454 5.54509 6.66665 4.16634 6.66665C2.78759 6.66665 1.66634 5.5454 1.66634 4.16665C1.66634 2.7879 2.78759 1.66665 4.16634 1.66665Z" fill="#8E8E8E"/>
</svg>
